<?xml version="1.0" encoding="utf-8"?>
<!-- Generator: Adobe Illustrator 16.0.0, SVG Export Plug-In . SVG Version: 6.00 Build 0)  -->
<!DOCTYPE svg PUBLIC "-//W3C//DTD SVG 1.1//EN" "http://www.w3.org/Graphics/SVG/1.1/DTD/svg11.dtd">
<svg version="1.1" id="Layer_1" xmlns="http://www.w3.org/2000/svg" xmlns:xlink="http://www.w3.org/1999/xlink" x="0px" y="0px"
	 width="864px" height="864px" viewBox="0 0 864 864" enable-background="new 0 0 864 864" xml:space="preserve">
<path fill-rule="evenodd" clip-rule="evenodd" d="M692.736,460.221c4.783,1.463,9.871,2.987,14.941,4.572
	c18.041,5.639,35.191,13.295,51.09,23.51c2.881,1.85,5.676,5.18,6.656,8.391c3.08,10.097,5.602,20.395,7.729,30.74
	c2.467,11.999-1.24,22.836-8.113,32.558c-10.825,15.31-24.284,27.288-43.29,31.185c-12.505,2.563-24.936,1.784-37.18-2.43
	c3.551-5.244,7.229-10.123,10.309-15.354c4.829-8.201,3.438-12.854-5.164-16.799c-10.803-4.953-21.647-3.285-32.089,1.27
	c-4.481,1.955-5.501,6.359-2.78,11.529c3.26,6.198,7.145,12.068,10.736,18.093c7.452,12.505,12.27,25.938,13.147,40.505
	c0.291,4.834-0.854,9.766-1.469,14.637c-0.345,2.736-1.983,3.471-4.757,3.276c-18.075-1.265-35.189-6.163-51.797-13.167
	c-18.66-7.871-35.394-18.84-49.988-32.727c-8.445-8.037-18.207-10.231-28.859-8.998c-7.911,0.916-15.936,2.773-23.35,5.652
	c-14.848,5.769-19.638,19.186-12.166,33.264c2.984,5.622,7.292,10.551,11.104,15.717c1.499,2.029,3.289,3.844,5.241,6.096
	c-27.292,22.52-57.702,19.559-89.254,11.787c1.017,2.954,1.815,5.271,2.659,7.725c-8.578,5.277-18.07,6.523-27.63,6.701
	c-27.172,0.508-53.502-4.881-79.369-12.583c-31.37-9.339-61.771-21.224-90.924-36.184c-1.454-0.746-2.826-1.653-4.969-2.919
	c6.41-5.496,12.543-10.755,19.372-16.61c-38.511-13.218-74.696-29.69-109.443-52.014c14.625-5.221,27.88-9.952,42.542-15.186
	c-31.436-18.698-60.851-38.378-88.852-61.942c59.71-16.32,119.433-27.432,179.627-38.207c-12.09-4.199-24.181-8.397-36.271-12.595
	c0.037-0.438,0.073-0.875,0.109-1.313c54.184-6.443,108.37-12.858,163.221-16.875c-9.729-3.706-19.459-7.412-30.437-11.593
	c1.917-0.497,2.51-0.792,3.098-0.782c32.952,0.603,65.936,0.554,98.847,2.072c25.959,1.197,52.012,3.301,77.324,9.741
	c19.052,4.848,37.955,10.418,56.642,16.531c27.065,8.855,54.495,14.791,83.14,13.964c4.852-0.139,5.759,0.89,4.674,5.548
	C695.79,451.318,694.213,455.496,692.736,460.221z M369.596,443.852c0.007,0.475,0.014,0.947,0.021,1.422
	c-32.551,2.748-64.362,9.293-95.724,18.065c-31.28,8.749-62.158,18.741-93.162,30.104c1.342,1.65,2.125,2.943,3.209,3.893
	c14.749,12.934,30.908,23.602,49.576,30.008c2.491,0.855,5.714,1.035,8.179,0.236c7.383-2.395,14.627-5.261,21.803-8.239
	c47.314-19.64,96.142-33.536,147.21-38.958c5.65-0.6,11.337-0.861,17.006-1.281c0.16,0.628,0.319,1.256,0.478,1.884
	c-74.211,9.318-139.706,40.608-202.949,79.269c2.777,2.193,5.199,4.404,7.902,6.19c14.985,9.901,31.681,15.96,48.547,21.733
	c6.142,2.103,10.89,1.521,16.12-2.564c14.922-11.657,31.354-20.949,48.549-28.82c42.912-19.644,88.057-28.34,135.164-26.998
	c4.719,0.135,9.417,1.018,14.125,1.553c-13.051,2.123-25.979,3.527-38.848,5.365c-36.547,5.219-70.98,16.551-102.163,36.65
	c-17.338,11.176-32.655,24.705-45.658,42.111c25.695,14.402,52.056,25.375,81.417,26.969c0.866-4.421,1.287-8.004,2.288-11.417
	c3.506-11.95,11.351-21.007,20.427-28.986c21.578-18.974,47.418-29.134,75-35.494c15.08-3.477,30.267-5.997,45.809-3.632
	c4.682,0.713,9.319,1.726,13.978,2.602c0.215-0.482,0.43-0.965,0.646-1.447c-8.409-4.993-16.819-9.986-25.229-14.979
	c17.455,1.094,34.378-0.455,50.659-6.309c18.624-6.696,34.901-20.445,38.66-32.164c-9.384,8.178-19.028,15.044-33.13,13.971
	c6.348-2.945,11.827-5.002,16.802-7.92c6.239-3.662,8.72-9.494,7.999-16.821c-0.224-2.285,0.67-4.679,1.131-7.517
	c-0.572-0.07-2.352-0.286-3.982-0.484c-0.811,2.344-1.244,4.273-2.108,5.984c-2.945,5.838-8.068,8.172-14.321,8.252
	c-6.748,0.086-12.322-2.32-15.787-8.414c-3.137-5.521-0.719-9.878,4.057-14.162c-5.672-2.266-10.686-4.268-15.701-6.27
	c-0.121,0.294-0.242,0.588-0.365,0.883c2.437,1.932,4.873,3.863,7.103,5.631c-1.442,2.314-3.108,4.191-3.837,6.381
	c-0.695,2.092-0.417,4.51-0.551,6.546c-7.768-3.724-15.227-7.3-22.741-10.901c7.698-3.994,8.24-7.407,1.263-13.199
	c-4.191-3.48-9.037-6.465-14.043-8.617c-15.945-6.852-32.896-8.561-50.068-8.607c-3.14-0.01-6.279,0.32-9.422,0.395
	c-2.977,0.072-5.957,0.017-8.938,0.017c0.029-0.431,0.059-0.861,0.088-1.292c36.249-5.279,72.128-5.336,107.379,7.977
	c-3.038-3.219-6.076-6.439-9.739-10.322c7.028,1.111,11.651,4.537,16.118,8.365c4.537,3.889,8.742,8.526,13.928,11.24
	c26.279,13.754,55.605,9.596,78.506-8.852c0.934-0.753,1.491-1.969,1.963-2.613c-12.682-1.707-25.436-2.147-37.45-5.357
	c-15.229-4.069-30.063-9.881-44.704-15.835c-37.848-15.393-76.961-24.002-117.921-23.647c-1.224,0.01-2.448,0.001-3.673,0.001
	c-0.041,0.392-0.082,0.784-0.124,1.176c3.345,1.118,6.702,2.201,10.032,3.365c3.213,1.124,6.396,2.331,9.594,3.501
	c-52.228-0.097-103.825,3.296-154.966,12.36c-0.002,0.397-0.005,0.796-0.007,1.195C339.876,439.3,354.736,441.576,369.596,443.852z
	 M556.837,558.425c26.824,34.3,58.978,60.757,103.854,67.604c1.113-8.11-1.873-18.477-7.859-28.298
	c-7.213-11.837-17.616-22.175-16.99-37.728c-6.254,2.998-8.694,7.18-7.176,12.892c0.861,3.241,2.527,6.407,4.428,9.204
	c3.697,5.439,7.953,10.496,11.713,15.895c3.309,4.75,6.737,9.602,5.062,16.235c-6.99-0.021-12.822-3.049-18.555-6.216
	c-14.347-7.925-26.104-18.938-36.961-31.057c-9.801-10.938-9.752-10.723,1.6-19.982c15.695-12.805,34.297-19.963,53.521-25.402
	c17.551-4.967,35.251-6.019,52.99-0.227c13.588,4.434,21.078,14.347,18.593,26.094c-0.912,4.312-2.964,8.406-4.699,12.514
	c-0.892,2.111-2.234,4.031-3.423,6.125c0.76,0.235,1.061,0.439,1.31,0.389c20.228-4.105,36.88-20.684,36.505-41.711
	c-0.154-8.703-3.9-17.323-5.836-26.02c-1.401-6.301-5.658-9.717-11.037-12.643c-21.299-11.578-44.391-15.736-68.224-16.793
	c-2.456-0.107-5.11,1.186-7.458,2.284c-7.676,3.591-15.301,7.298-22.826,11.192c-1.617,0.836-3.383,2.402-3.982,4.035
	c-9.922,26.978-26.931,47.09-54.789,56.559C570.003,555.613,563.068,556.857,556.837,558.425z M527.369,573.119
	c-33.813-3.37-84.826,25.516-95.426,53.344c10.947,7.24,23.23,9.555,36.357,10.044c-0.092-1.011-0.05-1.741-0.232-2.409
	c-3.146-11.471-0.244-21.663,6.996-30.646C488.315,587.014,505.11,576.39,527.369,573.119z"/>
<path fill-rule="evenodd" clip-rule="evenodd" d="M89.771,319.011c-19.228-11.3-38.455-22.6-58.752-34.527
	c2.285-0.254,3.363-0.475,4.44-0.477c10.799-0.027,21.598-0.104,32.395,0.041c2.722,0.036,3.863-0.815,4.607-3.487
	c3.438-12.354,7.217-24.612,10.663-36.964c0.704-2.525,1.868-3.412,4.345-3.353c4.41,0.107,8.825,0.03,13.238,0.03
	c0.06-0.372,0.12-0.743,0.179-1.114c-26.096-12.125-52.191-24.25-78.288-36.375c0.078-0.296,0.155-0.592,0.233-0.888
	c67.664,0,135.328,0,203.815,0c-6.486,18.925-12.827,37.427-19.404,56.619c-7.37-3.984-14.044-7.871-20.982-11.21
	c-2.972-1.431-6.463-2.252-9.767-2.423c-7.18-0.372-14.393-0.067-21.589-0.208c-2.503-0.049-3.789,0.659-4.337,3.291
	c-2.58,12.393-5.339,24.749-8.212,37.935c18.015,0,35.577,0,53.944,0c-0.971,3.116-1.644,5.333-2.351,7.541
	c-3.049,9.51-6.165,18.998-9.129,28.534c-0.958,3.084-2.445,4.474-5.995,4.415c-13.794-0.231-27.595-0.044-41.393-0.131
	c-2.414-0.016-3.969,0.541-4.478,3.107c-2.749,13.861-5.542,27.714-8.517,42.557c6.531-1.649,12.409-3.042,18.236-4.624
	c12.803-3.477,25.563-7.107,38.377-10.543c3.481-0.934,5.428-2.753,6.708-6.287c14.642-40.382,29.448-80.705,44.354-120.991
	c0.507-1.37,2.511-3.106,3.832-3.118c20.246-0.193,40.494-0.131,60.741-0.11c0.573,0.001,1.146,0.204,2.105,0.386
	c2.299,40.032,4.597,80.038,6.897,120.08c0.936,0,1.551,0.111,2.111-0.019c3.3-0.768,7.682-0.604,9.555-2.685
	c1.713-1.904,0.738-6.252,0.898-9.526c1.18-23.949,1.578-47.973,3.866-71.815c1.037-10.797-1.837-18.74-8.64-26.28
	c-2.565-2.844-4.554-6.208-7.223-9.914c2.074-0.11,3.486-0.25,4.897-0.25c30.896-0.012,61.792,0.045,92.688-0.073
	c4.017-0.015,6.879,1.602,10.146,3.721c10.186,6.606,13.958,15.524,12.239,27.401c-0.677,4.682-0.111,9.543-0.111,14.619
	c-11.6,0-22.931,0-35.053,0c0-5.805-0.207-11.735,0.077-17.643c0.172-3.581-1.008-4.716-4.55-4.621
	c-7.937,0.212-15.883,0.066-23.64,0.066c6.174,15.812,1.112,31.854,1.424,47.677c0.248,12.568-0.767,25.167-1.361,37.745
	c-0.197,4.173,1.711,5.66,5.625,5.563c5.695-0.141,11.397-0.217,17.093-0.127c3.127,0.049,4.33-1.407,4.331-4.327
	c0.002-10.198,0.304-20.41-0.165-30.585c-0.107-2.322-2.509-4.88-4.445-6.703c-3.907-3.68-8.219-6.931-13.181-11.034
	c18.451,0,35.838,0,53.918,0c0,23.936,0,47.838,0,72.225c-3.088,0.333-6.607,0.874-10.145,1.068
	c-22.729,1.25-45.461,2.46-68.196,3.609c-10.105,0.51-18.705-3.069-26.395-10.827c-0.478,4.076-1.035,7.417-1.211,10.778
	c-0.135,2.582-1.236,3.558-3.745,3.993c-14.266,2.477-28.501,5.123-43.351,7.821c-0.298-1.939-0.748-3.759-0.832-5.595
	c-0.419-9.133-0.873-18.268-1.039-27.408c-0.075-4.114-1.396-5.753-5.81-5.66c-13.007,0.275-26.023,0.098-39.469,1.011
	c2.002,1.3,3.933,2.733,6.026,3.862c2.216,1.194,2.873,2.662,2.058,5.108c-3.632,10.897-7.234,21.805-10.671,32.765
	c-1.131,3.606-3.518,4.974-6.961,6.017c-30.521,9.248-61.216,18.005-91.403,28.255c-32.821,11.145-64.318,25.654-95.315,41.178
	c-1.457,0.729-2.964,1.356-5.409,2.469c0.92-4.007,1.551-7.258,2.415-10.446c11.032-40.735,22.129-81.453,33.104-122.204
	c1.154-4.286,2.799-6.514,7.903-6.088c7.21,0.601,14.507,0.152,21.767,0.152C89.599,319.662,89.685,319.336,89.771,319.011z
	 M266.418,256.146c-0.37-0.11-0.74-0.22-1.11-0.329c-5.942,17.496-11.885,34.993-17.877,52.637c7.727,0,14.768,0,22.134,0
	C268.494,290.651,267.457,273.398,266.418,256.146z"/>
<path fill-rule="evenodd" clip-rule="evenodd" d="M754.793,230.929c-9.859,0-19.729-0.261-29.576,0.093
	c-6.393,0.23-9.3,4.031-8.143,10.208c2.114,11.286,4.343,22.56,6.948,33.741c2.336,10.023,5.88,12.453,16.054,12.576
	c11.68,0.143,23.414-0.203,35.026,0.798c19.79,1.706,32.381,13.025,37.628,31.901c12.133,43.655,23.862,87.421,35.745,131.145
	c0.264,0.973,0.399,1.979,0.759,3.795c-5.902-2.421-11.219-4.5-16.453-6.766c-43.549-18.854-88.029-35.215-133.24-49.586
	c-3.148-1-3.743-3.052-4.262-5.479c-3.68-17.21-7.287-34.435-10.928-51.654c-1.228-5.809-2.477-11.614-3.879-18.175
	c2.167,0,3.754,0,5.34,0c13.346,0,26.695,0.173,40.035-0.103c4-0.083,5.345,1.374,6.129,5.035
	c3.818,17.796,7.973,35.52,11.791,53.316c0.889,4.143,2.74,6.486,6.997,7.494c7.104,1.681,14.054,3.995,21.124,5.827
	c6.092,1.578,8.133,0.083,6.918-6.049c-2.463-12.422-5.521-24.73-8.484-37.048c-1.774-7.379-3.419-14.831-5.855-22
	c-4.226-12.436-12.021-17.608-25.236-18.254c-10.291-0.503-20.707-0.645-30.805-2.428c-16.196-2.86-28.408-12.408-33.168-28.114
	c-4.863-16.046-8.32-32.721-10.327-49.369c-1.882-15.611,11.335-26.353,24.14-28.832c3.789-0.733,7.732-0.927,11.605-0.933
	c47.086-0.06,94.174-0.039,141.261-0.038c1.462,0,2.924,0,4.386,0c0.11,0.278,0.221,0.557,0.33,0.835
	c-1.957,1.131-3.855,2.384-5.883,3.374c-15.288,7.462-30.561,14.958-45.938,22.237c-3.671,1.737-5.062,3.466-3.68,7.793
	c2.676,8.371,4.62,16.975,6.852,25.486c0.329,1.258,0.559,2.543,0.919,4.196c-1.739,0.143-3.045,0.341-4.351,0.344
	c-13.495,0.023-26.992-0.061-40.486,0.073c-3.061,0.03-4.562-0.859-5.295-3.991c-1.663-7.115-3.67-14.151-5.658-21.186
	c-0.69-2.448-0.08-3.842,2.328-4.827c3.277-1.34,6.422-3.005,9.623-4.531C754.986,231.53,754.891,231.23,754.793,230.929z"/>
<path fill-rule="evenodd" clip-rule="evenodd" d="M594.951,351.429c15.096,2.492,28.729,4.742,43.408,7.166
	c-1.921-12.036-3.711-23.249-5.598-35.067c10.204,0,19.766,0,29.326,0c9.173,0,9.354-0.035,11.076,9.11
	c3.541,18.787,6.878,37.612,10.254,56.43c0.254,1.419,0.157,2.902,0.236,4.663c-12.682-2.924-24.934-6.083-37.324-8.538
	c-27.517-5.451-55.092-10.607-82.672-15.724c-3.867-0.717-6.004-1.537-6.477-6.333c-2.297-23.364-5.18-46.67-7.842-69.998
	c-1.543-13.523-2.969-27.061-4.697-40.56c-0.23-1.808-1.547-3.924-3.012-5.053c-7.699-5.936-15.615-11.591-23.439-17.368
	c-1.279-0.945-2.475-2.003-4.457-3.619c47.794,0,94.605,0,141.799,0c2.418,15.16,4.832,30.293,7.359,46.131
	c-7.253,0-14.107,0.011-20.963-0.004c-4.198-0.009-8.419,0.17-12.582-0.233c-1.221-0.118-3.027-1.785-3.277-3.005
	c-1.017-4.967-1.598-10.028-2.209-15.07c-0.38-3.126-1.607-4.803-5.129-4.719c-7.795,0.187-15.598,0.087-23.396,0.034
	c-2.021-0.014-3.719,0.169-3.402,2.803c1.318,10.966,2.668,21.927,4.105,33.705c7.863,0,15.488,0.264,23.08-0.105
	c4.133-0.201,5.494,1.389,5.896,5.172c0.613,5.778,1.611,11.514,2.562,18.071c-9.635,0-18.947,0-28.959,0
	c0.835,6.866,1.533,12.905,2.314,18.932c0.424,3.26,0.596,6.625,1.568,9.727C604.502,344.351,600.919,347.856,594.951,351.429z"/>
<path fill-rule="evenodd" clip-rule="evenodd" d="M420.971,226.488c27.891,0,54.613,0,82.006,0c0,7.578,0,14.999,0,22.917
	c-3.251,0-6.921,0-10.866,0c0,6.645-0.256,12.831,0.047,18.989c0.992,20.044,2.244,40.074,3.211,60.119
	c0.081,1.705-0.924,3.664-1.928,5.17c-1.311,1.966-3.124,3.599-5.503,6.243c10.544,0,20.577,0,30.938,0
	c-0.547-5.166-1.11-10.49-1.711-16.167c9.123,0,18.155,0,27.564,0c1.48,14.645,2.932,29.002,4.44,43.934
	c-39.257-5.076-78.2-8.062-118.598-7.272c4.532-5.378,8.092-9.906,11.979-14.134c4.033-4.384,6.091-9.064,5.946-15.302
	c-0.55-23.671-0.665-47.354-0.771-71.033c-0.026-5.743-1.675-10.2-6.233-14.083C434.6,240,428.279,233.456,420.971,226.488z"/>
<path fill-rule="evenodd" clip-rule="evenodd" d="M555.19,505.763c2.681-0.693,5.345-1.51,8.065-2.03
	c1.258-0.24,2.835-0.311,3.912,0.238c10.342,5.273,20.719,5.948,31.299,0.235c-0.645,6.081-6.687,10.562-16.502,11.664
	C571.455,517.051,558.246,514.592,555.19,505.763z"/>
<path fill-rule="evenodd" clip-rule="evenodd" d="M666.342,497.279c-1.305,4.629-4.646,5.932-8.241,6.574
	c-6.386,1.138-12.815,2.02-19.392,3.033c3.279-3.914,6.268-7.5,9.289-11.059c0.271-0.318,0.752-0.635,1.143-0.645
	C654.889,495.048,660.715,494.393,666.342,497.279z"/>
<g>
	<g>
		<g>
			<path fill="#010101" d="M270.488,194.041H269.6h-11.428v4.828h2.412v14.479h-2.412v4.828h11.176v-4.828h-2.412v-3.938h2.664
				v-0.008h0.889c2.543,0,4.57-0.758,5.967-2.023c1.533-1.398,2.293-3.307,2.293-5.594c0-2.412-0.76-4.184-2.293-5.584
				C275.062,194.805,273.031,194.041,270.488,194.041z M271.383,204.076c-0.387,0.381-1.02,0.633-1.783,0.76
				c-0.252,0-0.633,0-1.012,0h-1.652v-5.967h1.652c0.379,0,0.76,0.123,1.012,0.123v0.004c0.764,0.129,1.396,0.381,1.783,0.633
				c0.766,0.508,1.018,1.271,1.018,2.287C272.4,202.938,272.148,203.572,271.383,204.076z"/>
			<polygon fill="#010101" points="303.135,198.869 305.672,198.869 305.672,203.312 298.559,203.312 298.559,198.869 
				301.104,198.869 301.104,194.041 289.924,194.041 289.924,198.869 292.332,198.869 292.332,213.348 289.924,213.348 
				289.924,218.172 301.104,218.172 301.104,213.348 298.559,213.348 298.559,208.141 305.672,208.141 305.672,213.348 
				303.135,213.348 303.135,218.172 314.436,218.172 314.436,213.348 312.027,213.348 312.027,198.869 314.436,198.869 
				314.436,194.041 303.135,194.041 			"/>
			<polygon fill="#010101" points="325.736,198.869 328.152,198.869 328.152,213.348 325.736,213.348 325.736,218.172 
				337.043,218.172 337.043,213.348 334.504,213.348 334.504,198.869 337.043,198.869 337.043,194.041 325.736,194.041 			"/>
			<polygon fill="#010101" points="363.199,213.348 357.111,213.348 357.111,198.869 359.523,198.869 359.523,194.041 
				348.348,194.041 348.348,198.869 350.76,198.869 350.76,213.348 348.348,213.348 348.348,218.172 368.795,218.172 
				368.795,208.648 364.732,208.648 			"/>
			<path fill="#010101" d="M396.604,194.168h-4.951v-0.004l-4.564-0.127l-5.973,19.307h-2.16v4.828v0.004h10.668v-4.828h-2.164
				l0.896-3.18h3.297h3.303l1.012,3.18h-2.154v4.828h10.539v-4.828h-2.156L396.604,194.168z M391.652,205.852h-2.281l2.281-7.619
				v0.123l2.287,7.496H391.652z"/>
			<path fill="#010101" d="M433.312,195.309c-0.766-0.381-1.652-0.756-2.922-0.889c-0.629-0.123-1.395-0.252-2.154-0.252
				c-0.51,0-1.277-0.127-2.029-0.127h-11.436v4.824h2.408v14.479h-2.408v4.828v0.008h11.436c0.752,0,1.52,0,2.029,0v-0.008
				c0.76,0,1.525-0.121,2.154-0.254c1.27-0.125,2.156-0.508,2.922-0.891c2.16-1.141,3.68-2.535,4.695-4.312
				c1.02-1.777,1.531-3.938,1.531-6.479c0-2.668-0.512-4.828-1.531-6.607C436.992,197.852,435.473,196.453,433.312,195.309z
				 M431.027,211.566c-0.766,0.762-1.656,1.141-2.791,1.523v0.012c-0.76,0.25-1.656,0.25-2.674,0.25h-1.906v-14.479h1.906
				c1.018,0,1.914,0.123,2.674,0.379c1.135,0.252,2.025,0.76,2.791,1.525c1.266,1.268,1.906,3.043,1.906,5.459
				C432.934,208.52,432.293,210.297,431.027,211.566z"/>
			<polygon fill="#010101" points="450.973,198.869 453.375,198.869 453.375,213.348 450.973,213.348 450.973,218.172 
				472.559,218.172 472.559,208.648 468.371,208.648 466.848,213.348 459.73,213.348 459.73,208.262 464.426,208.262 
				464.426,202.809 459.73,202.809 459.73,198.869 466.848,198.869 468.371,202.809 472.559,202.809 472.559,194.041 
				450.973,194.041 			"/>
			<polygon fill="#010101" points="499.484,213.348 493.387,213.348 493.387,198.869 495.809,198.869 495.809,194.041 
				484.621,194.041 484.621,198.869 487.035,198.869 487.035,213.348 484.621,213.348 484.621,218.172 505.074,218.172 
				505.074,208.648 501.012,208.648 			"/>
			<path fill="#010101" d="M528.441,194.041h-0.883h-0.004h-11.559v4.828h2.414v14.479h-2.414v4.828h11.305v-4.828h-2.539v-3.938
				h2.793v-0.008h0.887c2.41,0,4.441-0.758,5.961-2.023c1.406-1.398,2.164-3.307,2.164-5.594c0-2.412-0.758-4.184-2.164-5.584
				C532.883,194.805,530.855,194.041,528.441,194.041z M529.336,204.076c-0.512,0.381-1.02,0.633-1.781,0.76
				c-0.387,0-0.77,0-1.145,0h-1.648v-5.967h1.648c0.383,0,0.758,0.121,1.145,0.123v0.004c0.762,0.129,1.27,0.381,1.781,0.633
				c0.629,0.508,0.883,1.271,0.883,2.287C530.219,202.938,529.965,203.572,529.336,204.076z"/>
			<polygon fill="#010101" points="561.082,198.869 563.621,198.869 563.621,203.312 556.516,203.312 556.516,198.869 
				559.051,198.869 559.051,194.041 547.738,194.041 547.738,198.869 550.156,198.869 550.156,213.348 547.738,213.348 
				547.738,218.172 559.051,218.172 559.051,213.348 556.516,213.348 556.516,208.141 563.621,208.141 563.621,213.348 
				561.082,213.348 561.082,218.172 572.254,218.172 572.254,213.348 569.836,213.348 569.836,198.869 572.254,198.869 
				572.254,194.041 561.082,194.041 			"/>
			<polygon fill="#010101" points="583.566,198.869 586.105,198.869 586.105,213.348 583.566,213.348 583.566,218.172 
				594.867,218.172 594.867,213.348 592.32,213.348 592.32,198.869 594.867,198.869 594.867,194.041 583.566,194.041 			"/>
			<path fill="#010101" d="M628.645,213.348l-6.602-19.18h-3.938v-0.004h-4.82l-5.852,19.18h-2.023v4.828v0.004h10.547v-4.828
				h-2.047l0.902-3.18h3.285h0.008h3.305l0.883,3.18h-2.031v4.828h10.547v-4.828H628.645z M618.105,205.852h-0.008h-2.277
				l2.277-7.594v0.098l2.293,7.496H618.105z"/>
		</g>
	</g>
</g>
</svg>
